<?xml version="1.0" encoding="UTF-8" standalone="no"?>
<!-- Created with Inkscape (http://www.inkscape.org/) -->

<svg
   width="133.19748mm"
   height="126.87142mm"
   viewBox="0 0 133.19748 126.87142"
   version="1.1"
   id="svg5"
   xml:space="preserve"
   inkscape:version="1.2 (dc2aedaf03, 2022-05-15)"
   sodipodi:docname="BulletIcon.svg"
   xmlns:inkscape="http://www.inkscape.org/namespaces/inkscape"
   xmlns:sodipodi="http://sodipodi.sourceforge.net/DTD/sodipodi-0.dtd"
   xmlns="http://www.w3.org/2000/svg"
   xmlns:svg="http://www.w3.org/2000/svg"><sodipodi:namedview
     id="namedview7"
     pagecolor="#ffffff"
     bordercolor="#000000"
     borderopacity="0.25"
     inkscape:showpageshadow="2"
     inkscape:pageopacity="0.0"
     inkscape:pagecheckerboard="0"
     inkscape:deskcolor="#d1d1d1"
     inkscape:document-units="mm"
     showgrid="false"
     inkscape:zoom="0.78127806"
     inkscape:cx="236.15152"
     inkscape:cy="354.54727"
     inkscape:window-width="1920"
     inkscape:window-height="1057"
     inkscape:window-x="-8"
     inkscape:window-y="137"
     inkscape:window-maximized="1"
     inkscape:current-layer="layer1" /><defs
     id="defs2" /><g
     inkscape:label="Layer 1"
     inkscape:groupmode="layer"
     id="layer1"
     transform="translate(1.1642357,0.37196102)"><path
       style="fill:#ffffff;fill-opacity:0;stroke:#ffffff;stroke-width:4;stroke-dasharray:none;stroke-opacity:1"
       d="M 14.731471,76.705254 C 21.724537,68.998228 52.889852,40.891402 75.011974,20.827252 83.079924,14.47861 110.13113,-8.1403264 125.47149,6.4344356 140.81185,21.009198 112.83208,48.100247 110.06271,50.628848 96.710404,64.502376 59.628608,99.660864 48.258267,109.80872 c -2.988642,3.71341 -7.489945,1.99159 -9.312999,5.50313 -1.484399,1.81827 -1.033441,3.376 -1.693273,4.31785 -0.913823,1.95781 -1.198437,2.26997 -4.91049,4.40251 C 27.698153,119.73033 5.1732146,96.915844 1.4392796,91.775364 c 4.139783,-4.29384 4.388747,-4.37688 6.349772,-5.50313 1.348718,-0.76456 2.9171584,-0.46149 4.2704554,-1.27465 1.652628,-1.08256 1.746811,-2.68474 2.671964,-8.29233 z"
       id="path299"
       sodipodi:nodetypes="cczccccccccc" /><path
       style="fill:#ffffff;stroke:#ffffff;stroke-width:4;stroke-dasharray:none;stroke-opacity:1"
       d="M 8.0430436,85.764244 38.09863,117.17445"
       id="path1777"
       sodipodi:nodetypes="cc" /><path
       style="fill:#ffffff;stroke:#ffffff;stroke-width:4;stroke-dasharray:none;stroke-opacity:1"
       d="M 74.673314,21.165906 105.6602,54.86203"
       id="path1779" /><path
       style="fill:#ffffff;stroke:#ffffff;stroke-width:4;stroke-dasharray:none;stroke-opacity:1"
       d="M 78.737174,17.779361 109.72405,50.967503"
       id="path1781" /></g></svg>
