<?xml version="1.0" encoding="UTF-8" standalone="no"?>
<!-- Created with Inkscape (http://www.inkscape.org/) -->

<svg
   width="53.563408mm"
   height="53.323944mm"
   viewBox="0 0 53.563408 53.323944"
   version="1.1"
   id="svg7503"
   xml:space="preserve"
   inkscape:version="1.2 (dc2aedaf03, 2022-05-15)"
   sodipodi:docname="GBucks.svg"
   xmlns:inkscape="http://www.inkscape.org/namespaces/inkscape"
   xmlns:sodipodi="http://sodipodi.sourceforge.net/DTD/sodipodi-0.dtd"
   xmlns="http://www.w3.org/2000/svg"
   xmlns:svg="http://www.w3.org/2000/svg"><sodipodi:namedview
     id="namedview7505"
     pagecolor="#ffffff"
     bordercolor="#000000"
     borderopacity="0.25"
     inkscape:showpageshadow="2"
     inkscape:pageopacity="0.0"
     inkscape:pagecheckerboard="0"
     inkscape:deskcolor="#d1d1d1"
     inkscape:document-units="mm"
     showgrid="false"
     inkscape:zoom="1"
     inkscape:cx="-361.5"
     inkscape:cy="269"
     inkscape:window-width="1920"
     inkscape:window-height="1057"
     inkscape:window-x="-8"
     inkscape:window-y="137"
     inkscape:window-maximized="1"
     inkscape:current-layer="layer1" /><defs
     id="defs7500" /><g
     inkscape:label="Layer 1"
     inkscape:groupmode="layer"
     id="layer1"
     transform="translate(-135.95874,-68.86937)"><ellipse
       style="fill:none;stroke:#cc8100;stroke-width:3.75;stroke-dasharray:none;stroke-opacity:1"
       id="path10229"
       cx="162.74045"
       cy="95.531342"
       rx="24.906704"
       ry="24.786972" /><g
       aria-label="G"
       id="text10285"
       style="font-size:49.3889px;fill:#cc8100;stroke:#cc8100;stroke-width:2"><path
         d="m 171.40596,106.61813 q -2.04983,0.84404 -4.25469,1.29191 -2.18764,0.44786 -4.2547,0.44786 -2.68717,0 -4.77146,-0.75792 -2.06706,-0.75792 -3.47955,-2.30822 -1.41249,-1.55029 -2.15318,-3.89296 -0.72347,-2.359889 -0.72347,-5.546605 0,-3.462323 0.74069,-5.942793 0.75792,-2.480471 2.18764,-4.04799 1.42972,-1.584745 3.514,-2.325441 2.10151,-0.740696 4.78869,-0.740696 1.67087,0 3.514,0.344509 1.84312,0.327285 3.7896,0.947402 l -0.91295,2.583824 q -1.73977,-0.585667 -3.27284,-0.8785 -1.51584,-0.292834 -3.06614,-0.292834 -1.99815,0 -3.49677,0.585667 -1.49862,0.585667 -2.4977,1.808676 -0.98185,1.22301 -1.48139,3.117814 -0.48231,1.894804 -0.48231,4.513078 0,2.583823 0.44786,4.495849 0.46509,1.91203 1.41249,3.16949 0.9474,1.24024 2.41157,1.86036 1.46416,0.60289 3.46232,0.60289 1.41249,0 2.84221,-0.29283 1.42971,-0.29284 2.61827,-0.68902 v -6.855749 h -4.15134 v -2.601049 h 7.26915 z"
         style="font-size:35.2778px;font-family:Alef;-inkscape-font-specification:Alef"
         id="path18822" /></g><rect
       style="fill:#cc8100;fill-opacity:1;stroke:none;stroke-width:5.74998;stroke-linecap:butt;stroke-dasharray:none;stroke-opacity:1"
       id="rect14865"
       width="3.9288619"
       height="36.340332"
       x="157.58926"
       y="77.608551" /><rect
       style="fill:#cc8100;fill-opacity:1;stroke:none;stroke-width:2.39681;stroke-linecap:butt;stroke-dasharray:none;stroke-opacity:1"
       id="rect14865-2"
       width="3.9288619"
       height="6.3142428"
       x="164.18414"
       y="77.608559" /><rect
       style="fill:#cc8100;fill-opacity:1;stroke:none;stroke-width:2.43205;stroke-linecap:butt;stroke-dasharray:none;stroke-opacity:1"
       id="rect14865-5"
       width="3.9288619"
       height="6.5013313"
       x="164.23091"
       y="-114.04408"
       transform="scale(1,-1)" /></g></svg>
