<?xml version="1.0" encoding="UTF-8" standalone="no"?>
<!-- Created with Inkscape (http://www.inkscape.org/) -->

<svg
   width="132.88943mm"
   height="106.58489mm"
   viewBox="0 0 132.88944 106.58489"
   version="1.1"
   id="svg6166"
   xml:space="preserve"
   inkscape:version="1.2 (dc2aedaf03, 2022-05-15)"
   sodipodi:docname="LaserIcon.svg"
   xmlns:inkscape="http://www.inkscape.org/namespaces/inkscape"
   xmlns:sodipodi="http://sodipodi.sourceforge.net/DTD/sodipodi-0.dtd"
   xmlns="http://www.w3.org/2000/svg"
   xmlns:svg="http://www.w3.org/2000/svg"><sodipodi:namedview
     id="namedview6168"
     pagecolor="#ffffff"
     bordercolor="#000000"
     borderopacity="0.25"
     inkscape:showpageshadow="2"
     inkscape:pageopacity="0.0"
     inkscape:pagecheckerboard="0"
     inkscape:deskcolor="#d1d1d1"
     inkscape:document-units="mm"
     showgrid="false"
     inkscape:zoom="0.55244701"
     inkscape:cx="294.14586"
     inkscape:cy="-191.87361"
     inkscape:window-width="1920"
     inkscape:window-height="1057"
     inkscape:window-x="-8"
     inkscape:window-y="137"
     inkscape:window-maximized="1"
     inkscape:current-layer="layer1" /><defs
     id="defs6163" /><g
     inkscape:label="Layer 1"
     inkscape:groupmode="layer"
     id="layer1"
     transform="translate(-6.2858134,-42.733719)"><path
       style="fill:#ff0000;fill-opacity:0;stroke:#ffffff;stroke-width:4;stroke-dasharray:none;stroke-opacity:1"
       d="m 44.109747,147.27237 c 28.175423,-0.0376 28.182448,0.0106 54.269386,0.0423 -6.2885,-12.55939 -11.634989,-24.38685 -13.2759,-36.38126 -10.339424,2.346 -16.378443,2.7674 -27.963067,0.59866 -3.772073,12.28629 -6.008927,22.56743 -13.030419,35.74027 z"
       id="path6599"
       sodipodi:nodetypes="cccccc" /><path
       style="fill:#ff0000;fill-opacity:0;stroke:#ffffff;stroke-width:4;stroke-dasharray:none;stroke-opacity:1"
       d="m 9.4613653,61.546423 c 26.7821807,0.188659 39.0028097,0.640383 59.4810547,0.441179 0.102365,-1.905725 0.457317,-4.415664 -0.05937,-6.49903 -0.570679,-2.30104 -2.006416,-2.66619 -2.065127,-6.256592 0.493805,-2.741793 3.50944,-4.661043 6.289832,-4.485865 2.698299,0.170003 5.029771,2.367107 5.385473,5.04725 -0.199674,3.241611 -0.858634,3.692843 -1.343048,5.759431 -0.472451,2.015544 -0.47483,3.913129 -0.46813,6.210515 24.85743,0.360583 26.84443,-0.04502 59.42712,0.130435 C 123.68668,89.93741 96.320191,106.23664 70.912706,106.18265 45.505221,106.12866 25.287067,94.845585 9.4613653,61.546423 Z"
       id="path9133"
       sodipodi:nodetypes="ccccccccczc" /></g></svg>
